<?xml version="1.0" standalone="no"?>
<!DOCTYPE svg PUBLIC "-//W3C//DTD SVG 20010904//EN"
 "http://www.w3.org/TR/2001/REC-SVG-20010904/DTD/svg10.dtd">
<svg version="1.0" xmlns="http://www.w3.org/2000/svg"
 width="180.000000pt" height="180.000000pt" viewBox="0 0 180.000000 180.000000"
 preserveAspectRatio="xMidYMid meet">

<g transform="translate(0.000000,180.000000) scale(0.100000,-0.100000)"
fill="#000000" stroke="none">
<path d="M464 1290 c-63 -13 -130 -48 -183 -96 -123 -110 -159 -270 -100 -430
26 -70 118 -168 190 -202 60 -29 152 -45 214 -38 61 8 151 40 185 66 l25 20
-117 0 -118 0 0 170 0 169 -92 3 -92 3 204 124 c113 68 207 126 210 128 9 8
-45 42 -100 63 -62 24 -165 33 -226 20z"/>
<path d="M948 1202 c-22 -3 -27 -9 -33 -43 -8 -46 -21 -43 -31 6 -6 33 -9 35
-45 35 l-39 0 0 -90 c0 -83 2 -90 20 -90 16 0 19 8 22 58 l3 57 18 -58 c24
-77 45 -75 67 8 l15 60 3 -62 c3 -59 4 -63 27 -63 25 0 25 1 25 93 0 69 -3 93
-12 93 -7 0 -25 -2 -40 -4z"/>
<path d="M1010 1196 c0 -3 10 -22 22 -43 13 -20 25 -58 28 -83 4 -40 8 -45 30
-45 22 0 26 5 31 45 3 25 15 64 27 88 l22 42 -25 0 c-14 0 -25 -4 -25 -8 0 -5
-6 -17 -14 -27 -14 -19 -15 -19 -27 8 -9 20 -19 27 -41 27 -15 0 -28 -2 -28
-4z"/>
<path d="M813 983 c-9 -3 -13 -32 -13 -94 l0 -90 28 3 c22 2 28 8 30 36 2 24
8 32 23 32 15 0 19 -7 19 -36 0 -33 2 -35 28 -32 27 3 27 3 30 91 l3 87 -31 0
c-27 0 -30 -3 -30 -30 0 -23 -4 -30 -20 -30 -15 0 -20 7 -20 29 0 29 -20 43
-47 34z"/>
<path d="M1015 978 c-33 -19 -44 -41 -45 -85 0 -30 6 -49 20 -63 59 -59 150
-19 150 65 0 71 -67 116 -125 83z m63 -92 c-2 -33 -7 -41 -23 -41 -16 0 -21 8
-23 38 -4 46 13 73 35 55 9 -7 13 -26 11 -52z"/>
<path d="M1418 982 l-48 -3 0 -90 0 -89 70 0 c68 0 70 1 70 25 0 23 -4 25 -40
25 -29 0 -40 4 -40 15 0 10 10 15 30 15 23 0 30 4 30 20 0 16 -7 20 -30 20
-16 0 -30 5 -30 10 0 6 18 10 40 10 33 0 40 3 40 20 0 11 -3 20 -7 21 -5 0
-15 1 -23 2 -8 1 -36 1 -62 -1z"/>
<path d="M1150 890 c0 -83 1 -90 20 -90 18 0 20 7 21 63 0 67 8 61 29 -21 15
-60 39 -53 61 18 l17 55 1 -57 c1 -55 2 -58 26 -58 25 0 25 1 25 91 l0 90 -37
-3 c-33 -3 -37 -7 -47 -43 -12 -43 -19 -40 -31 13 -6 29 -10 32 -46 32 l-39 0
0 -90z"/>
<path d="M840 757 c-56 -29 -64 -117 -13 -157 28 -22 54 -25 84 -10 13 7 19 7
19 0 0 -5 7 -10 15 -10 11 0 15 12 15 50 l0 50 -40 0 c-28 0 -40 -4 -40 -14 0
-8 6 -16 13 -19 9 -4 9 -7 0 -17 -19 -20 -43 6 -43 45 0 42 26 67 45 42 13
-17 65 -24 65 -8 0 19 -37 51 -65 56 -16 3 -41 0 -55 -8z"/>
<path d="M1190 758 c-13 -8 -30 -25 -37 -38 -9 -17 -13 -20 -13 -8 0 34 -29
48 -96 48 l-64 0 0 -90 c0 -89 0 -90 25 -90 22 0 25 4 25 35 0 19 4 35 10 35
5 0 16 -16 24 -35 13 -29 20 -35 45 -35 l31 0 -16 40 c-14 35 -14 41 -1 54 13
14 16 11 21 -19 13 -69 90 -96 143 -51 23 20 28 32 28 70 0 32 -6 51 -20 65
-26 27 -74 35 -105 19z m-115 -48 c0 -8 -10 -16 -22 -18 -18 -3 -23 2 -23 18
0 16 5 21 23 18 12 -2 22 -10 22 -18z m177 -5 c14 -31 0 -80 -22 -80 -22 0
-36 49 -22 80 6 14 16 25 22 25 6 0 16 -11 22 -25z"/>
<path d="M1330 685 c0 -69 2 -76 25 -91 27 -18 89 -14 109 6 6 6 12 44 14 85
4 75 4 75 -21 75 -25 0 -26 -2 -29 -67 -3 -60 -5 -68 -23 -68 -18 0 -20 8 -23
68 -3 64 -4 67 -27 67 -24 0 -25 -2 -25 -75z"/>
<path d="M1492 673 c3 -88 3 -88 31 -91 25 -3 27 -1 27 32 0 33 3 36 28 36 61
0 94 57 54 93 -13 12 -37 17 -81 17 l-62 0 3 -87z m98 32 c0 -8 -9 -15 -20
-15 -11 0 -20 7 -20 15 0 8 9 15 20 15 11 0 20 -7 20 -15z"/>
</g>
</svg>
